<svg xmlns="http://www.w3.org/2000/svg" xmlns:xlink="http://www.w3.org/1999/xlink" width="23" height="23" viewBox="0 0 23 23"><defs><clipPath id="a"><rect width="23" height="23" fill="#fff"/></clipPath></defs><g transform="translate(-260 -595)"><g transform="translate(260 595)"><g clip-path="url(#a)"><path d="M11.5,2.072c3.071,0,3.434.012,4.647.067a6.362,6.362,0,0,1,2.135.4A3.563,3.563,0,0,1,19.6,3.4a3.563,3.563,0,0,1,.86,1.322,6.363,6.363,0,0,1,.4,2.135c.055,1.213.067,1.576.067,4.647s-.012,3.434-.067,4.647a6.363,6.363,0,0,1-.4,2.135,3.809,3.809,0,0,1-2.183,2.183,6.362,6.362,0,0,1-2.135.4c-1.212.055-1.576.067-4.647.067s-3.435-.012-4.647-.067a6.363,6.363,0,0,1-2.135-.4,3.564,3.564,0,0,1-1.322-.86,3.564,3.564,0,0,1-.86-1.322,6.364,6.364,0,0,1-.4-2.135c-.055-1.213-.067-1.576-.067-4.647s.012-3.434.067-4.647a6.364,6.364,0,0,1,.4-2.135A3.564,3.564,0,0,1,3.394,3.4a3.564,3.564,0,0,1,1.322-.86,6.363,6.363,0,0,1,2.135-.4c1.213-.055,1.576-.067,4.647-.067M11.5,0C8.376,0,7.984.013,6.758.069A8.442,8.442,0,0,0,3.966.6,5.637,5.637,0,0,0,1.929,1.93,5.637,5.637,0,0,0,.6,3.967,8.441,8.441,0,0,0,.068,6.759C.012,7.985,0,8.377,0,11.5s.013,3.515.069,4.741A8.441,8.441,0,0,0,.6,19.033,5.637,5.637,0,0,0,1.929,21.07,5.637,5.637,0,0,0,3.966,22.4a8.442,8.442,0,0,0,2.792.535C7.984,22.987,8.376,23,11.5,23s3.515-.013,4.741-.069a8.442,8.442,0,0,0,2.792-.535A5.88,5.88,0,0,0,22.4,19.033a8.441,8.441,0,0,0,.535-2.792c.056-1.227.069-1.618.069-4.741s-.013-3.515-.069-4.741A8.441,8.441,0,0,0,22.4,3.967,5.638,5.638,0,0,0,21.069,1.93,5.638,5.638,0,0,0,19.032.6,8.442,8.442,0,0,0,16.24.069C15.014.013,14.622,0,11.5,0" transform="translate(0.001 0)" fill="#fff"/><path d="M128.46,122.556a5.905,5.905,0,1,0,5.905,5.905,5.905,5.905,0,0,0-5.905-5.905m0,9.739a3.833,3.833,0,1,1,3.833-3.833,3.833,3.833,0,0,1-3.833,3.833" transform="translate(-116.96 -116.961)" fill="#fff"/><path d="M358.926,88.595a1.38,1.38,0,1,1-1.38-1.38,1.38,1.38,0,0,1,1.38,1.38" transform="translate(-339.907 -83.234)" fill="#fff"/></g></g><rect width="23" height="23" transform="translate(260 595)" fill="none"/></g></svg>