<svg xmlns="http://www.w3.org/2000/svg" width="140" height="33" viewBox="0 0 140 33"><g transform="translate(-140 -475)"><g transform="translate(5 -235)"><rect width="0.903" height="5.503" transform="translate(181.507 736.526)" fill="#fff"/><path d="M19.931,47.844l-1.267,2.684L17.4,47.844H16.391l1.83,3.508v2h.9v-2l1.821-3.508Z" transform="translate(127.697 688.682)" fill="#fff"/><path d="M36.457,48.075a2.646,2.646,0,0,1,1.017,1,3.013,3.013,0,0,1,0,2.9,2.639,2.639,0,0,1-1.017,1.006,2.968,2.968,0,0,1-2.835,0A2.668,2.668,0,0,1,32.6,51.979a2.985,2.985,0,0,1,0-2.9,2.676,2.676,0,0,1,1.021-1,2.968,2.968,0,0,1,2.835,0m-2.4.709a1.718,1.718,0,0,0-.669.7,2.185,2.185,0,0,0-.242,1.045,2.211,2.211,0,0,0,.242,1.05,1.742,1.742,0,0,0,.669.7,2.025,2.025,0,0,0,1.948,0,1.746,1.746,0,0,0,.669-.7,2.211,2.211,0,0,0,.242-1.05,2.185,2.185,0,0,0-.242-1.045,1.722,1.722,0,0,0-.669-.7,2.054,2.054,0,0,0-1.948,0" transform="translate(120.642 688.74)" fill="#fff"/><path d="M55.5,47.843v5.5h-.9V50.916H52.009v2.431h-.9v-5.5h.9v2.376H54.6V47.843Z" transform="translate(112.229 688.682)" fill="#fff"/><path d="M71.243,47.843V51.81a1.534,1.534,0,0,1-.447,1.164,1.831,1.831,0,0,1-2.352,0A1.534,1.534,0,0,1,68,51.81h.911a.906.906,0,0,0,.186.578.755.755,0,0,0,1.057,0,.866.866,0,0,0,.182-.574V47.843Z" transform="translate(104.703 688.683)" fill="#fff"/><path d="M111.058,47.843l-1.821,3.508v2h-.9v-2L106.5,47.843h1.006l1.267,2.685,1.267-2.685Z" transform="translate(87.545 688.682)" fill="#fff"/><path d="M124.986,52.216h-2.3l-.4,1.124h-.943l1.972-5.511h1.046l1.972,5.511h-.95Zm-.246-.7-.9-2.589-.911,2.589Z" transform="translate(80.934 688.689)" fill="#fff"/><path d="M145.025,47.843v5.5h-.9V49.578l-1.679,3.769h-.625l-1.687-3.769v3.769h-.9v-5.5h.974l1.932,4.316,1.924-4.316Z" transform="translate(72.964 688.682)" fill="#fff"/><path d="M162.009,52.216h-2.3l-.4,1.124h-.943l1.972-5.511h1.046l1.972,5.511h-.95Zm-.246-.7-.9-2.589-.911,2.589Z" transform="translate(64.438 688.689)" fill="#fff"/><path d="M181.844,47.843v5.5h-.9V49.578l-1.679,3.769h-.625l-1.687-3.769v3.769h-.9v-5.5h.974l1.932,4.316,1.924-4.316Z" transform="translate(56.559 688.682)" fill="#fff"/><path d="M199.475,48.075a2.646,2.646,0,0,1,1.017,1,3.013,3.013,0,0,1,0,2.9,2.639,2.639,0,0,1-1.017,1.006,2.968,2.968,0,0,1-2.835,0,2.667,2.667,0,0,1-1.021-1.006,2.985,2.985,0,0,1,0-2.9,2.675,2.675,0,0,1,1.021-1,2.968,2.968,0,0,1,2.835,0m-2.4.709a1.718,1.718,0,0,0-.669.7,2.185,2.185,0,0,0-.242,1.045,2.211,2.211,0,0,0,.242,1.05,1.742,1.742,0,0,0,.669.7,2.025,2.025,0,0,0,1.948,0,1.746,1.746,0,0,0,.669-.7,2.211,2.211,0,0,0,.242-1.05,2.185,2.185,0,0,0-.242-1.045,1.722,1.722,0,0,0-.669-.7,2.054,2.054,0,0,0-1.948,0" transform="translate(48.007 688.74)" fill="#fff"/><path d="M216.735,47.843v.7h-1.465v4.8h-.9v-4.8h-1.473v-.7Z" transform="translate(40.142 688.682)" fill="#fff"/><path d="M231.581,48.075a2.646,2.646,0,0,1,1.017,1,3.012,3.012,0,0,1,0,2.9,2.639,2.639,0,0,1-1.017,1.006,2.968,2.968,0,0,1-2.835,0,2.668,2.668,0,0,1-1.021-1.006,2.985,2.985,0,0,1,0-2.9,2.676,2.676,0,0,1,1.021-1,2.968,2.968,0,0,1,2.835,0m-2.4.709a1.718,1.718,0,0,0-.669.7,2.185,2.185,0,0,0-.242,1.045,2.21,2.21,0,0,0,.242,1.05,1.742,1.742,0,0,0,.669.7,2.025,2.025,0,0,0,1.948,0,1.746,1.746,0,0,0,.669-.7,2.21,2.21,0,0,0,.242-1.05,2.185,2.185,0,0,0-.242-1.045,1.722,1.722,0,0,0-.669-.7,2.053,2.053,0,0,0-1.948,0" transform="translate(33.702 688.74)" fill="#fff"/><path d="M13.314.446V2.888H8.236V19.524H5.106V2.888H0V.446Z" transform="translate(135 709.801)" fill="#fff"/><path d="M48.7.446V19.524H45.575V11.1H36.6v8.427H33.469V.446H36.6V8.681h8.977V.446Z" transform="translate(120.087 709.801)" fill="#fff"/><path d="M75.514,2.839V8.631H82.1v2.416H75.514v6.012h7.412V19.5H72.385V.4H82.926V2.839Z" transform="translate(102.748 709.823)" fill="#fff"/><path d="M123.115,16.635a5.714,5.714,0,0,1-2.292,2.086,7.485,7.485,0,0,1-3.541.8,7.791,7.791,0,0,1-4.8-1.4,4.567,4.567,0,0,1-1.866-3.87h3.349a2.92,2.92,0,0,0,.933,2,3.459,3.459,0,0,0,2.389.741,3.673,3.673,0,0,0,2.539-.824,2.709,2.709,0,0,0,.919-2.114,2.235,2.235,0,0,0-.562-1.606,3.7,3.7,0,0,0-1.414-.905,21.408,21.408,0,0,0-2.334-.673,19.9,19.9,0,0,1-3.019-.92,4.843,4.843,0,0,1-1.977-1.537,4.549,4.549,0,0,1-.823-2.869,5.209,5.209,0,0,1,.823-2.91A5.373,5.373,0,0,1,113.74.686a8.019,8.019,0,0,1,3.4-.686,7.217,7.217,0,0,1,4.516,1.317,5.044,5.044,0,0,1,1.908,3.816h-3.459a2.769,2.769,0,0,0-.934-1.84,3.159,3.159,0,0,0-2.2-.741,3.544,3.544,0,0,0-2.306.714A2.563,2.563,0,0,0,113.8,5.38a2.33,2.33,0,0,0,.563,1.633,3.526,3.526,0,0,0,1.414.933,20.827,20.827,0,0,0,2.361.673,20.242,20.242,0,0,1,2.992.92,4.833,4.833,0,0,1,1.963,1.51,4.484,4.484,0,0,1,.81,2.841,5.2,5.2,0,0,1-.782,2.745" transform="translate(85.716 710)" fill="#fff"/><path d="M160.057.446V19.524h-3.129V11.1h-8.977v8.427h-3.129V.446h3.129V8.681h8.977V.446Z" transform="translate(70.472 709.801)" fill="#fff"/><path d="M197.47,1.249A9.187,9.187,0,0,1,201,4.722a9.826,9.826,0,0,1,1.29,5.024A9.9,9.9,0,0,1,201,14.782a9.161,9.161,0,0,1-3.527,3.486,10.289,10.289,0,0,1-9.827,0,9.249,9.249,0,0,1-3.541-3.486,9.817,9.817,0,0,1-1.3-5.037,9.743,9.743,0,0,1,1.3-5.024,9.276,9.276,0,0,1,3.541-3.472,10.289,10.289,0,0,1,9.827,0m-8.3,2.457a5.963,5.963,0,0,0-2.32,2.416,7.563,7.563,0,0,0-.837,3.624,7.645,7.645,0,0,0,.837,3.637,6.031,6.031,0,0,0,2.32,2.443,7.023,7.023,0,0,0,6.753,0,6.033,6.033,0,0,0,2.319-2.443,7.645,7.645,0,0,0,.837-3.637,7.563,7.563,0,0,0-.837-3.624,5.965,5.965,0,0,0-2.319-2.416,7.124,7.124,0,0,0-6.753,0" transform="translate(53.552 710)" fill="#fff"/><path d="M231.576,11.782v7.742h-3.129V.445h6.588a8.315,8.315,0,0,1,3.719.755,5.254,5.254,0,0,1,2.279,2.045,5.607,5.607,0,0,1,.755,2.883,5.761,5.761,0,0,1-.686,2.745,5.142,5.142,0,0,1-2.2,2.1,8.151,8.151,0,0,1-3.871.809ZM237.7,8.488a3.134,3.134,0,0,0,.878-2.361,3.173,3.173,0,0,0-.878-2.389,3.7,3.7,0,0,0-2.662-.851h-3.459V9.339h3.459a3.692,3.692,0,0,0,2.662-.851" transform="translate(33.212 709.801)" fill="#fff"/></g><rect width="140" height="33" transform="translate(140 475)" fill="none"/></g></svg>